<mxfile host="65bd71144e">
    <diagram id="C5RBs43oDa-KdzZeNtuy" name="Page-1">
        <mxGraphModel dx="2467" dy="784" grid="0" gridSize="10" guides="1" tooltips="1" connect="1" arrows="1" fold="1" page="1" pageScale="1" pageWidth="827" pageHeight="1169" math="0" shadow="0">
            <root>
                <mxCell id="WIyWlLk6GJQsqaUBKTNV-0"/>
                <mxCell id="WIyWlLk6GJQsqaUBKTNV-1" parent="WIyWlLk6GJQsqaUBKTNV-0"/>
                <mxCell id="dvy28G7DYci_It_k2Q8M-25" value="" style="rounded=1;whiteSpace=wrap;html=1;fillColor=none;arcSize=5;" parent="WIyWlLk6GJQsqaUBKTNV-1" vertex="1">
                    <mxGeometry x="-195" y="619" width="740" height="964" as="geometry"/>
                </mxCell>
                <mxCell id="dvy28G7DYci_It_k2Q8M-0" value="Camera::Init()" style="rounded=1;whiteSpace=wrap;html=1;fontSize=12;glass=0;strokeWidth=1;shadow=0;fillColor=#d5e8d4;strokeColor=#82b366;" parent="WIyWlLk6GJQsqaUBKTNV-1" vertex="1">
                    <mxGeometry x="97" y="453" width="120" height="40" as="geometry"/>
                </mxCell>
                <mxCell id="dvy28G7DYci_It_k2Q8M-2" value="Render::Init()" style="rounded=1;whiteSpace=wrap;html=1;fontSize=12;glass=0;strokeWidth=1;shadow=0;fillColor=#d5e8d4;strokeColor=#82b366;" parent="WIyWlLk6GJQsqaUBKTNV-1" vertex="1">
                    <mxGeometry x="-231" y="450" width="120" height="40" as="geometry"/>
                </mxCell>
                <mxCell id="dvy28G7DYci_It_k2Q8M-29" value="" style="edgeStyle=orthogonalEdgeStyle;rounded=0;orthogonalLoop=1;jettySize=auto;html=1;" parent="WIyWlLk6GJQsqaUBKTNV-1" source="dvy28G7DYci_It_k2Q8M-3" target="dvy28G7DYci_It_k2Q8M-26" edge="1">
                    <mxGeometry relative="1" as="geometry"/>
                </mxCell>
                <mxCell id="dvy28G7DYci_It_k2Q8M-3" value="TSlam::Init()" style="rounded=1;whiteSpace=wrap;html=1;fontSize=12;glass=0;strokeWidth=1;shadow=0;fillColor=#d5e8d4;strokeColor=#82b366;" parent="WIyWlLk6GJQsqaUBKTNV-1" vertex="1">
                    <mxGeometry x="-63" y="453" width="120" height="40" as="geometry"/>
                </mxCell>
                <mxCell id="dvy28G7DYci_It_k2Q8M-6" value="&lt;font style=&quot;font-size: 22px&quot;&gt;main.cc&lt;/font&gt;" style="text;html=1;strokeColor=none;fillColor=none;align=center;verticalAlign=middle;whiteSpace=wrap;rounded=0;" parent="WIyWlLk6GJQsqaUBKTNV-1" vertex="1">
                    <mxGeometry x="-210" y="230" width="40" height="20" as="geometry"/>
                </mxCell>
                <mxCell id="dvy28G7DYci_It_k2Q8M-8" value="OpenGL::Init()&lt;br&gt;GLFW::Init()&lt;br&gt;ImGUI::Init()" style="rounded=1;whiteSpace=wrap;html=1;fontSize=12;glass=0;strokeWidth=1;shadow=0;fillColor=#d5e8d4;strokeColor=#82b366;" parent="WIyWlLk6GJQsqaUBKTNV-1" vertex="1">
                    <mxGeometry x="453" y="432" width="120" height="63" as="geometry"/>
                </mxCell>
                <mxCell id="dvy28G7DYci_It_k2Q8M-10" value="Imgui::Render()&lt;br&gt;GLFW::Refresh()" style="rounded=1;whiteSpace=wrap;html=1;fontSize=12;glass=0;strokeWidth=1;shadow=0;fillColor=#fff2cc;strokeColor=#d6b656;" parent="WIyWlLk6GJQsqaUBKTNV-1" vertex="1">
                    <mxGeometry x="176" y="1502" width="120" height="40" as="geometry"/>
                </mxCell>
                <mxCell id="dvy28G7DYci_It_k2Q8M-96" style="edgeStyle=orthogonalEdgeStyle;rounded=0;orthogonalLoop=1;jettySize=auto;html=1;entryX=0.5;entryY=0;entryDx=0;entryDy=0;" parent="WIyWlLk6GJQsqaUBKTNV-1" source="dvy28G7DYci_It_k2Q8M-11" target="dvy28G7DYci_It_k2Q8M-3" edge="1">
                    <mxGeometry relative="1" as="geometry"/>
                </mxCell>
                <mxCell id="dvy28G7DYci_It_k2Q8M-97" style="edgeStyle=orthogonalEdgeStyle;rounded=0;orthogonalLoop=1;jettySize=auto;html=1;" parent="WIyWlLk6GJQsqaUBKTNV-1" source="dvy28G7DYci_It_k2Q8M-11" target="dvy28G7DYci_It_k2Q8M-0" edge="1">
                    <mxGeometry relative="1" as="geometry"/>
                </mxCell>
                <mxCell id="dvy28G7DYci_It_k2Q8M-99" style="edgeStyle=orthogonalEdgeStyle;rounded=0;orthogonalLoop=1;jettySize=auto;html=1;entryX=0.5;entryY=0;entryDx=0;entryDy=0;" parent="WIyWlLk6GJQsqaUBKTNV-1" source="dvy28G7DYci_It_k2Q8M-11" target="dvy28G7DYci_It_k2Q8M-20" edge="1">
                    <mxGeometry relative="1" as="geometry"/>
                </mxCell>
                <mxCell id="dvy28G7DYci_It_k2Q8M-11" value="Camera Calib .yaml" style="rounded=1;whiteSpace=wrap;html=1;fontSize=12;glass=0;strokeWidth=1;shadow=0;fillColor=#dae8fc;strokeColor=#6c8ebf;" parent="WIyWlLk6GJQsqaUBKTNV-1" vertex="1">
                    <mxGeometry x="96" y="364" width="120" height="27" as="geometry"/>
                </mxCell>
                <mxCell id="dvy28G7DYci_It_k2Q8M-98" style="edgeStyle=orthogonalEdgeStyle;rounded=0;orthogonalLoop=1;jettySize=auto;html=1;entryX=0.5;entryY=0;entryDx=0;entryDy=0;" parent="WIyWlLk6GJQsqaUBKTNV-1" source="dvy28G7DYci_It_k2Q8M-12" target="dvy28G7DYci_It_k2Q8M-3" edge="1">
                    <mxGeometry relative="1" as="geometry"/>
                </mxCell>
                <mxCell id="dvy28G7DYci_It_k2Q8M-12" value="Map binary" style="rounded=1;whiteSpace=wrap;html=1;fontSize=12;glass=0;strokeWidth=1;shadow=0;fillColor=#dae8fc;strokeColor=#6c8ebf;" parent="WIyWlLk6GJQsqaUBKTNV-1" vertex="1">
                    <mxGeometry x="-63" y="319" width="120" height="27" as="geometry"/>
                </mxCell>
                <mxCell id="dvy28G7DYci_It_k2Q8M-95" style="edgeStyle=orthogonalEdgeStyle;rounded=0;orthogonalLoop=1;jettySize=auto;html=1;entryX=0.5;entryY=0;entryDx=0;entryDy=0;" parent="WIyWlLk6GJQsqaUBKTNV-1" source="dvy28G7DYci_It_k2Q8M-13" target="dvy28G7DYci_It_k2Q8M-2" edge="1">
                    <mxGeometry relative="1" as="geometry"/>
                </mxCell>
                <mxCell id="dvy28G7DYci_It_k2Q8M-13" value="3D fabrication model" style="rounded=1;whiteSpace=wrap;html=1;fontSize=12;glass=0;strokeWidth=1;shadow=0;fillColor=#dae8fc;strokeColor=#6c8ebf;" parent="WIyWlLk6GJQsqaUBKTNV-1" vertex="1">
                    <mxGeometry x="-231" y="377" width="120" height="27" as="geometry"/>
                </mxCell>
                <mxCell id="dvy28G7DYci_It_k2Q8M-20" value="ToolHeadSens::Init()" style="rounded=1;whiteSpace=wrap;html=1;fontSize=12;glass=0;strokeWidth=1;shadow=0;fillColor=#d5e8d4;strokeColor=#82b366;" parent="WIyWlLk6GJQsqaUBKTNV-1" vertex="1">
                    <mxGeometry x="235" y="453" width="200" height="40" as="geometry"/>
                </mxCell>
                <mxCell id="dvy28G7DYci_It_k2Q8M-91" style="edgeStyle=orthogonalEdgeStyle;rounded=0;orthogonalLoop=1;jettySize=auto;html=1;entryX=0.5;entryY=0;entryDx=0;entryDy=0;" parent="WIyWlLk6GJQsqaUBKTNV-1" source="dvy28G7DYci_It_k2Q8M-22" target="dvy28G7DYci_It_k2Q8M-90" edge="1">
                    <mxGeometry relative="1" as="geometry"/>
                </mxCell>
                <mxCell id="dvy28G7DYci_It_k2Q8M-22" value="Camera::ReadFrame()" style="rounded=1;whiteSpace=wrap;html=1;fontSize=12;glass=0;strokeWidth=1;shadow=0;fillColor=#f5f5f5;strokeColor=#666666;fontColor=#333333;" parent="WIyWlLk6GJQsqaUBKTNV-1" vertex="1">
                    <mxGeometry x="53" y="652" width="136" height="40" as="geometry"/>
                </mxCell>
                <mxCell id="dvy28G7DYci_It_k2Q8M-26" value="TSlam::ThreadStart()" style="rounded=1;whiteSpace=wrap;html=1;fontSize=12;glass=0;strokeWidth=1;shadow=0;fillColor=#f5f5f5;strokeColor=#666666;fontColor=#333333;" parent="WIyWlLk6GJQsqaUBKTNV-1" vertex="1">
                    <mxGeometry x="-89" y="532" width="172" height="40" as="geometry"/>
                </mxCell>
                <mxCell id="dvy28G7DYci_It_k2Q8M-35" value="Var" style="rounded=1;whiteSpace=wrap;html=1;fontSize=12;glass=0;strokeWidth=1;shadow=0;arcSize=50;" parent="WIyWlLk6GJQsqaUBKTNV-1" vertex="1">
                    <mxGeometry x="564" y="742" width="120" height="28" as="geometry"/>
                </mxCell>
                <mxCell id="dvy28G7DYci_It_k2Q8M-27" value="&lt;font style=&quot;font-size: 16px&quot;&gt;Main loop&lt;/font&gt;" style="text;html=1;strokeColor=none;fillColor=none;align=center;verticalAlign=middle;whiteSpace=wrap;rounded=0;" parent="WIyWlLk6GJQsqaUBKTNV-1" vertex="1">
                    <mxGeometry x="-217" y="592" width="73" height="20" as="geometry"/>
                </mxCell>
                <mxCell id="dvy28G7DYci_It_k2Q8M-34" style="edgeStyle=orthogonalEdgeStyle;rounded=0;orthogonalLoop=1;jettySize=auto;html=1;entryX=0.5;entryY=0;entryDx=0;entryDy=0;" parent="WIyWlLk6GJQsqaUBKTNV-1" source="dvy28G7DYci_It_k2Q8M-30" target="dvy28G7DYci_It_k2Q8M-31" edge="1">
                    <mxGeometry x="-328" y="592" as="geometry"/>
                </mxCell>
                <mxCell id="dvy28G7DYci_It_k2Q8M-30" value="TSlam::Pose()" style="rounded=1;whiteSpace=wrap;html=1;fontSize=12;glass=0;strokeWidth=1;shadow=0;fillColor=#f5f5f5;strokeColor=#666666;fontColor=#333333;" parent="WIyWlLk6GJQsqaUBKTNV-1" vertex="1">
                    <mxGeometry x="-106.5" y="826" width="207" height="40" as="geometry"/>
                </mxCell>
                <mxCell id="dvy28G7DYci_It_k2Q8M-38" value="" style="edgeStyle=orthogonalEdgeStyle;rounded=0;orthogonalLoop=1;jettySize=auto;html=1;" parent="WIyWlLk6GJQsqaUBKTNV-1" source="dvy28G7DYci_It_k2Q8M-31" target="dvy28G7DYci_It_k2Q8M-37" edge="1">
                    <mxGeometry relative="1" as="geometry"/>
                </mxCell>
                <mxCell id="dvy28G7DYci_It_k2Q8M-31" value="Pose camera" style="rounded=1;whiteSpace=wrap;html=1;fontSize=12;glass=0;strokeWidth=1;shadow=0;arcSize=50;" parent="WIyWlLk6GJQsqaUBKTNV-1" vertex="1">
                    <mxGeometry x="-63" y="900" width="120" height="28" as="geometry"/>
                </mxCell>
                <mxCell id="dvy28G7DYci_It_k2Q8M-37" value="Render::UpdateCameraPose()" style="rounded=1;whiteSpace=wrap;html=1;fontSize=12;glass=0;strokeWidth=1;shadow=0;fillColor=#f5f5f5;strokeColor=#666666;fontColor=#333333;" parent="WIyWlLk6GJQsqaUBKTNV-1" vertex="1">
                    <mxGeometry x="-92" y="984" width="178" height="40" as="geometry"/>
                </mxCell>
                <mxCell id="dvy28G7DYci_It_k2Q8M-54" style="edgeStyle=orthogonalEdgeStyle;rounded=0;orthogonalLoop=1;jettySize=auto;html=1;entryX=0.5;entryY=0;entryDx=0;entryDy=0;" parent="WIyWlLk6GJQsqaUBKTNV-1" source="dvy28G7DYci_It_k2Q8M-45" target="dvy28G7DYci_It_k2Q8M-49" edge="1">
                    <mxGeometry relative="1" as="geometry"/>
                </mxCell>
                <mxCell id="dvy28G7DYci_It_k2Q8M-45" value="Render::ImgUnion()" style="rounded=1;whiteSpace=wrap;html=1;fontSize=12;glass=0;strokeWidth=1;shadow=0;fillColor=#f5f5f5;strokeColor=#666666;fontColor=#333333;" parent="WIyWlLk6GJQsqaUBKTNV-1" vertex="1">
                    <mxGeometry x="147" y="1282" width="178" height="40" as="geometry"/>
                </mxCell>
                <mxCell id="dvy28G7DYci_It_k2Q8M-70" style="edgeStyle=orthogonalEdgeStyle;rounded=0;orthogonalLoop=1;jettySize=auto;html=1;entryX=0.5;entryY=0;entryDx=0;entryDy=0;" parent="WIyWlLk6GJQsqaUBKTNV-1" source="dvy28G7DYci_It_k2Q8M-48" target="dvy28G7DYci_It_k2Q8M-10" edge="1">
                    <mxGeometry relative="1" as="geometry"/>
                </mxCell>
                <mxCell id="dvy28G7DYci_It_k2Q8M-48" value="Imgui::ShowTexture()" style="rounded=1;whiteSpace=wrap;html=1;fontSize=12;glass=0;strokeWidth=1;shadow=0;fillColor=#f5f5f5;strokeColor=#666666;fontColor=#333333;" parent="WIyWlLk6GJQsqaUBKTNV-1" vertex="1">
                    <mxGeometry x="147" y="1412" width="178" height="40" as="geometry"/>
                </mxCell>
                <mxCell id="dvy28G7DYci_It_k2Q8M-55" style="edgeStyle=orthogonalEdgeStyle;rounded=0;orthogonalLoop=1;jettySize=auto;html=1;entryX=0.5;entryY=0;entryDx=0;entryDy=0;" parent="WIyWlLk6GJQsqaUBKTNV-1" source="dvy28G7DYci_It_k2Q8M-49" target="dvy28G7DYci_It_k2Q8M-48" edge="1">
                    <mxGeometry relative="1" as="geometry"/>
                </mxCell>
                <mxCell id="dvy28G7DYci_It_k2Q8M-49" value="Rendered Texture" style="rounded=1;whiteSpace=wrap;html=1;fontSize=12;glass=0;strokeWidth=1;shadow=0;arcSize=50;" parent="WIyWlLk6GJQsqaUBKTNV-1" vertex="1">
                    <mxGeometry x="176" y="1354" width="120" height="26" as="geometry"/>
                </mxCell>
                <mxCell id="dvy28G7DYci_It_k2Q8M-66" style="edgeStyle=orthogonalEdgeStyle;rounded=0;orthogonalLoop=1;jettySize=auto;html=1;entryX=0.5;entryY=0;entryDx=0;entryDy=0;" parent="WIyWlLk6GJQsqaUBKTNV-1" source="dvy28G7DYci_It_k2Q8M-51" target="dvy28G7DYci_It_k2Q8M-45" edge="1">
                    <mxGeometry relative="1" as="geometry"/>
                </mxCell>
                <mxCell id="dvy28G7DYci_It_k2Q8M-51" value="OpenGL Frame" style="rounded=1;whiteSpace=wrap;html=1;fontSize=12;glass=0;strokeWidth=1;shadow=0;arcSize=50;" parent="WIyWlLk6GJQsqaUBKTNV-1" vertex="1">
                    <mxGeometry x="-63" y="1214" width="120" height="26" as="geometry"/>
                </mxCell>
                <mxCell id="dvy28G7DYci_It_k2Q8M-58" value="Render::Update3DModel()" style="rounded=1;whiteSpace=wrap;html=1;fontSize=12;glass=0;strokeWidth=1;shadow=0;fillColor=#f5f5f5;strokeColor=#666666;fontColor=#333333;" parent="WIyWlLk6GJQsqaUBKTNV-1" vertex="1">
                    <mxGeometry x="-92" y="1024" width="178" height="40" as="geometry"/>
                </mxCell>
                <mxCell id="dvy28G7DYci_It_k2Q8M-64" style="edgeStyle=orthogonalEdgeStyle;rounded=0;orthogonalLoop=1;jettySize=auto;html=1;" parent="WIyWlLk6GJQsqaUBKTNV-1" source="dvy28G7DYci_It_k2Q8M-59" target="dvy28G7DYci_It_k2Q8M-51" edge="1">
                    <mxGeometry relative="1" as="geometry"/>
                </mxCell>
                <mxCell id="dvy28G7DYci_It_k2Q8M-59" value="Render::UpdateGLFrame()" style="rounded=1;whiteSpace=wrap;html=1;fontSize=12;glass=0;strokeWidth=1;shadow=0;fillColor=#f5f5f5;strokeColor=#666666;fontColor=#333333;" parent="WIyWlLk6GJQsqaUBKTNV-1" vertex="1">
                    <mxGeometry x="-92" y="1157" width="178" height="40" as="geometry"/>
                </mxCell>
                <mxCell id="dvy28G7DYci_It_k2Q8M-69" value="Buffer" style="rounded=1;whiteSpace=wrap;html=1;fontSize=12;glass=0;strokeWidth=1;shadow=0;arcSize=50;fillColor=#ffe6cc;strokeColor=#d79b00;" parent="WIyWlLk6GJQsqaUBKTNV-1" vertex="1">
                    <mxGeometry x="568" y="777" width="120" height="26" as="geometry"/>
                </mxCell>
                <mxCell id="dvy28G7DYci_It_k2Q8M-86" style="edgeStyle=orthogonalEdgeStyle;rounded=0;orthogonalLoop=1;jettySize=auto;html=1;entryX=0.5;entryY=0;entryDx=0;entryDy=0;" parent="WIyWlLk6GJQsqaUBKTNV-1" source="dvy28G7DYci_It_k2Q8M-75" target="dvy28G7DYci_It_k2Q8M-81" edge="1">
                    <mxGeometry relative="1" as="geometry"/>
                </mxCell>
                <mxCell id="dvy28G7DYci_It_k2Q8M-75" value="ToolHeadSens::Pose()" style="rounded=1;whiteSpace=wrap;html=1;fontSize=12;glass=0;strokeWidth=1;shadow=0;fillColor=#f5f5f5;strokeColor=#666666;fontColor=#333333;" parent="WIyWlLk6GJQsqaUBKTNV-1" vertex="1">
                    <mxGeometry x="155" y="826" width="172" height="40" as="geometry"/>
                </mxCell>
                <mxCell id="dvy28G7DYci_It_k2Q8M-88" value="" style="edgeStyle=orthogonalEdgeStyle;rounded=0;orthogonalLoop=1;jettySize=auto;html=1;" parent="WIyWlLk6GJQsqaUBKTNV-1" source="dvy28G7DYci_It_k2Q8M-80" target="dvy28G7DYci_It_k2Q8M-59" edge="1">
                    <mxGeometry relative="1" as="geometry"/>
                </mxCell>
                <mxCell id="dvy28G7DYci_It_k2Q8M-80" value="Render::UpdateToolHead()" style="rounded=1;whiteSpace=wrap;html=1;fontSize=12;glass=0;strokeWidth=1;shadow=0;fillColor=#f5f5f5;strokeColor=#666666;fontColor=#333333;" parent="WIyWlLk6GJQsqaUBKTNV-1" vertex="1">
                    <mxGeometry x="-92" y="1065" width="178" height="40" as="geometry"/>
                </mxCell>
                <mxCell id="dvy28G7DYci_It_k2Q8M-84" style="edgeStyle=orthogonalEdgeStyle;rounded=0;orthogonalLoop=1;jettySize=auto;html=1;entryX=1;entryY=0.5;entryDx=0;entryDy=0;" parent="WIyWlLk6GJQsqaUBKTNV-1" source="dvy28G7DYci_It_k2Q8M-81" target="dvy28G7DYci_It_k2Q8M-80" edge="1">
                    <mxGeometry relative="1" as="geometry"/>
                </mxCell>
                <mxCell id="dvy28G7DYci_It_k2Q8M-81" value="Pose toolhead" style="rounded=1;whiteSpace=wrap;html=1;fontSize=12;glass=0;strokeWidth=1;shadow=0;arcSize=50;" parent="WIyWlLk6GJQsqaUBKTNV-1" vertex="1">
                    <mxGeometry x="181" y="1072" width="120" height="28" as="geometry"/>
                </mxCell>
                <mxCell id="dvy28G7DYci_It_k2Q8M-92" style="edgeStyle=orthogonalEdgeStyle;rounded=0;orthogonalLoop=1;jettySize=auto;html=1;entryX=0.5;entryY=0;entryDx=0;entryDy=0;" parent="WIyWlLk6GJQsqaUBKTNV-1" source="dvy28G7DYci_It_k2Q8M-90" target="dvy28G7DYci_It_k2Q8M-45" edge="1">
                    <mxGeometry relative="1" as="geometry">
                        <Array as="points">
                            <mxPoint x="445" y="738"/>
                            <mxPoint x="445" y="1229"/>
                            <mxPoint x="236" y="1229"/>
                        </Array>
                    </mxGeometry>
                </mxCell>
                <mxCell id="dvy28G7DYci_It_k2Q8M-93" style="edgeStyle=orthogonalEdgeStyle;rounded=0;orthogonalLoop=1;jettySize=auto;html=1;" parent="WIyWlLk6GJQsqaUBKTNV-1" source="dvy28G7DYci_It_k2Q8M-90" target="dvy28G7DYci_It_k2Q8M-30" edge="1">
                    <mxGeometry relative="1" as="geometry"/>
                </mxCell>
                <mxCell id="dvy28G7DYci_It_k2Q8M-94" style="edgeStyle=orthogonalEdgeStyle;rounded=0;orthogonalLoop=1;jettySize=auto;html=1;" parent="WIyWlLk6GJQsqaUBKTNV-1" source="dvy28G7DYci_It_k2Q8M-90" target="dvy28G7DYci_It_k2Q8M-75" edge="1">
                    <mxGeometry relative="1" as="geometry"/>
                </mxCell>
                <mxCell id="dvy28G7DYci_It_k2Q8M-90" value="Camera Frame" style="rounded=1;whiteSpace=wrap;html=1;fontSize=12;glass=0;strokeWidth=1;shadow=0;arcSize=50;fillColor=#ffe6cc;strokeColor=#d79b00;" parent="WIyWlLk6GJQsqaUBKTNV-1" vertex="1">
                    <mxGeometry x="61" y="725" width="120" height="26" as="geometry"/>
                </mxCell>
                <mxCell id="dvy28G7DYci_It_k2Q8M-102" style="edgeStyle=orthogonalEdgeStyle;rounded=0;orthogonalLoop=1;jettySize=auto;html=1;entryX=0.5;entryY=0;entryDx=0;entryDy=0;" parent="WIyWlLk6GJQsqaUBKTNV-1" source="dvy28G7DYci_It_k2Q8M-100" target="dvy28G7DYci_It_k2Q8M-20" edge="1">
                    <mxGeometry relative="1" as="geometry"/>
                </mxCell>
                <mxCell id="dvy28G7DYci_It_k2Q8M-100" value="Initial Pose" style="rounded=1;whiteSpace=wrap;html=1;fontSize=12;glass=0;strokeWidth=1;shadow=0;fillColor=#dae8fc;strokeColor=#6c8ebf;" parent="WIyWlLk6GJQsqaUBKTNV-1" vertex="1">
                    <mxGeometry x="275" y="319" width="120" height="27" as="geometry"/>
                </mxCell>
                <mxCell id="dvy28G7DYci_It_k2Q8M-101" value="Toolhead mesh" style="rounded=1;whiteSpace=wrap;html=1;fontSize=12;glass=0;strokeWidth=1;shadow=0;fillColor=#dae8fc;strokeColor=#6c8ebf;" parent="WIyWlLk6GJQsqaUBKTNV-1" vertex="1">
                    <mxGeometry x="275" y="292" width="120" height="27" as="geometry"/>
                </mxCell>
            </root>
        </mxGraphModel>
    </diagram>
</mxfile>